<?xml version="1.0" encoding="utf-8" standalone="no"?>
<!DOCTYPE svg PUBLIC "-//W3C//DTD SVG 1.1//EN"
  "http://www.w3.org/Graphics/SVG/1.1/DTD/svg11.dtd">
<svg xmlns:xlink="http://www.w3.org/1999/xlink" width="584.39952pt" height="267.59952pt" viewBox="0 0 584.39952 267.59952" xmlns="http://www.w3.org/2000/svg" version="1.1">
 <metadata>
  <rdf:RDF xmlns:dc="http://purl.org/dc/elements/1.1/" xmlns:cc="http://creativecommons.org/ns#" xmlns:rdf="http://www.w3.org/1999/02/22-rdf-syntax-ns#">
   <cc:Work>
    <dc:type rdf:resource="http://purl.org/dc/dcmitype/StillImage"/>
    <dc:format>image/svg+xml</dc:format>
    <dc:creator>
     <cc:Agent>
      <dc:title>Matplotlib v3.11.2, https://matplotlib.org/</dc:title>
     </cc:Agent>
    </dc:creator>
   </cc:Work>
  </rdf:RDF>
 </metadata>
 <defs>
  <style type="text/css">*{stroke-linejoin: round; stroke-linecap: butt}</style>
 </defs>
 <g id="figure_1">
  <g id="patch_1">
   <path d="M 0 267.59952 
L 584.39952 267.59952 
L 584.39952 0 
L 0 0 
z
" style="fill: #ffffff"/>
  </g>
  <g id="axes_1">
   <g id="patch_2">
    <path d="M 58.719336 222.370277 
L 577.19952 222.370277 
L 577.19952 11.18877 
L 58.719336 11.18877 
z
" style="fill: #ffffff"/>
   </g>
   <g id="matplotlib.axis_1">
    <g id="xtick_1">
     <g id="line2d_1">
      <defs>
       <path id="m5f13f704b6" d="M 0 0 
L 0 3.5 
" style="stroke: #66717e; stroke-width: 0.8"/>
      </defs>
      <g>
       <use xlink:href="#m5f13f704b6" x="82.286617" y="222.370277" style="fill: #66717e; stroke: #66717e; stroke-width: 0.8"/>
      </g>
     </g>
     <g id="text_1">
      <text style="font-size: 10.5px; font-family: 'DejaVu Sans'; fill: #66717e" transform="translate(53.145999 252.3752) rotate(-30)">1940s</text>
     </g>
    </g>
    <g id="xtick_2">
     <g id="line2d_2">
      <g>
       <use xlink:href="#m5f13f704b6" x="160.844221" y="222.370277" style="fill: #66717e; stroke: #66717e; stroke-width: 0.8"/>
      </g>
     </g>
     <g id="text_2">
      <text style="font-size: 10.5px; font-family: 'DejaVu Sans'; fill: #66717e" transform="translate(131.703603 252.3752) rotate(-30)">1950s</text>
     </g>
    </g>
    <g id="xtick_3">
     <g id="line2d_3">
      <g>
       <use xlink:href="#m5f13f704b6" x="239.401824" y="222.370277" style="fill: #66717e; stroke: #66717e; stroke-width: 0.8"/>
      </g>
     </g>
     <g id="text_3">
      <text style="font-size: 10.5px; font-family: 'DejaVu Sans'; fill: #66717e" transform="translate(210.261206 252.3752) rotate(-30)">1960s</text>
     </g>
    </g>
    <g id="xtick_4">
     <g id="line2d_4">
      <g>
       <use xlink:href="#m5f13f704b6" x="317.959428" y="222.370277" style="fill: #66717e; stroke: #66717e; stroke-width: 0.8"/>
      </g>
     </g>
     <g id="text_4">
      <text style="font-size: 10.5px; font-family: 'DejaVu Sans'; fill: #66717e" transform="translate(288.81881 252.3752) rotate(-30)">1970s</text>
     </g>
    </g>
    <g id="xtick_5">
     <g id="line2d_5">
      <g>
       <use xlink:href="#m5f13f704b6" x="396.517032" y="222.370277" style="fill: #66717e; stroke: #66717e; stroke-width: 0.8"/>
      </g>
     </g>
     <g id="text_5">
      <text style="font-size: 10.5px; font-family: 'DejaVu Sans'; fill: #66717e" transform="translate(367.376414 252.3752) rotate(-30)">1980s</text>
     </g>
    </g>
    <g id="xtick_6">
     <g id="line2d_6">
      <g>
       <use xlink:href="#m5f13f704b6" x="475.074635" y="222.370277" style="fill: #66717e; stroke: #66717e; stroke-width: 0.8"/>
      </g>
     </g>
     <g id="text_6">
      <text style="font-size: 10.5px; font-family: 'DejaVu Sans'; fill: #66717e" transform="translate(445.934017 252.3752) rotate(-30)">1990s</text>
     </g>
    </g>
    <g id="xtick_7">
     <g id="line2d_7">
      <g>
       <use xlink:href="#m5f13f704b6" x="553.632239" y="222.370277" style="fill: #66717e; stroke: #66717e; stroke-width: 0.8"/>
      </g>
     </g>
     <g id="text_7">
      <text style="font-size: 10.5px; font-family: 'DejaVu Sans'; fill: #66717e" transform="translate(514.376783 258.215005) rotate(-30)">2000-07</text>
     </g>
    </g>
   </g>
   <g id="matplotlib.axis_2">
    <g id="ytick_1">
     <g id="line2d_8">
      <path d="M 58.719336 222.370277 
L 577.19952 222.370277 
" clip-path="url(#pcc22744776)" style="fill: none; stroke: #d9dee3; stroke-width: 0.5; stroke-linecap: square"/>
     </g>
     <g id="line2d_9">
      <defs>
       <path id="m2076fd8b33" d="M 0 0 
L -3.5 0 
" style="stroke: #66717e; stroke-width: 0.8"/>
      </defs>
      <g>
       <use xlink:href="#m2076fd8b33" x="58.719336" y="222.370277" style="fill: #66717e; stroke: #66717e; stroke-width: 0.8"/>
      </g>
     </g>
     <g id="text_8">
      <text style="font-size: 10.5px; font-family: 'DejaVu Sans'; text-anchor: end; fill: #66717e" x="51.719336" y="226.359046" transform="rotate(-0 51.719336 226.359046)">0%</text>
     </g>
    </g>
    <g id="ytick_2">
     <g id="line2d_10">
      <path d="M 58.719336 180.133975 
L 577.19952 180.133975 
" clip-path="url(#pcc22744776)" style="fill: none; stroke: #d9dee3; stroke-width: 0.5; stroke-linecap: square"/>
     </g>
     <g id="line2d_11">
      <g>
       <use xlink:href="#m2076fd8b33" x="58.719336" y="180.133975" style="fill: #66717e; stroke: #66717e; stroke-width: 0.8"/>
      </g>
     </g>
     <g id="text_9">
      <text style="font-size: 10.5px; font-family: 'DejaVu Sans'; text-anchor: end; fill: #66717e" x="51.719336" y="184.122745" transform="rotate(-0 51.719336 184.122745)">20%</text>
     </g>
    </g>
    <g id="ytick_3">
     <g id="line2d_12">
      <path d="M 58.719336 137.897674 
L 577.19952 137.897674 
" clip-path="url(#pcc22744776)" style="fill: none; stroke: #d9dee3; stroke-width: 0.5; stroke-linecap: square"/>
     </g>
     <g id="line2d_13">
      <g>
       <use xlink:href="#m2076fd8b33" x="58.719336" y="137.897674" style="fill: #66717e; stroke: #66717e; stroke-width: 0.8"/>
      </g>
     </g>
     <g id="text_10">
      <text style="font-size: 10.5px; font-family: 'DejaVu Sans'; text-anchor: end; fill: #66717e" x="51.719336" y="141.886443" transform="rotate(-0 51.719336 141.886443)">40%</text>
     </g>
    </g>
    <g id="ytick_4">
     <g id="line2d_14">
      <path d="M 58.719336 95.661372 
L 577.19952 95.661372 
" clip-path="url(#pcc22744776)" style="fill: none; stroke: #d9dee3; stroke-width: 0.5; stroke-linecap: square"/>
     </g>
     <g id="line2d_15">
      <g>
       <use xlink:href="#m2076fd8b33" x="58.719336" y="95.661372" style="fill: #66717e; stroke: #66717e; stroke-width: 0.8"/>
      </g>
     </g>
     <g id="text_11">
      <text style="font-size: 10.5px; font-family: 'DejaVu Sans'; text-anchor: end; fill: #66717e" x="51.719336" y="99.650142" transform="rotate(-0 51.719336 99.650142)">60%</text>
     </g>
    </g>
    <g id="ytick_5">
     <g id="line2d_16">
      <path d="M 58.719336 53.425071 
L 577.19952 53.425071 
" clip-path="url(#pcc22744776)" style="fill: none; stroke: #d9dee3; stroke-width: 0.5; stroke-linecap: square"/>
     </g>
     <g id="line2d_17">
      <g>
       <use xlink:href="#m2076fd8b33" x="58.719336" y="53.425071" style="fill: #66717e; stroke: #66717e; stroke-width: 0.8"/>
      </g>
     </g>
     <g id="text_12">
      <text style="font-size: 10.5px; font-family: 'DejaVu Sans'; text-anchor: end; fill: #66717e" x="51.719336" y="57.41384" transform="rotate(-0 51.719336 57.41384)">80%</text>
     </g>
    </g>
    <g id="ytick_6">
     <g id="line2d_18">
      <path d="M 58.719336 11.18877 
L 577.19952 11.18877 
" clip-path="url(#pcc22744776)" style="fill: none; stroke: #d9dee3; stroke-width: 0.5; stroke-linecap: square"/>
     </g>
     <g id="line2d_19">
      <g>
       <use xlink:href="#m2076fd8b33" x="58.719336" y="11.18877" style="fill: #66717e; stroke: #66717e; stroke-width: 0.8"/>
      </g>
     </g>
     <g id="text_13">
      <text style="font-size: 10.5px; font-family: 'DejaVu Sans'; text-anchor: end; fill: #66717e" x="51.719336" y="15.177539" transform="rotate(-0 51.719336 15.177539)">100%</text>
     </g>
    </g>
    <g id="text_14">
     <text style="font-size: 10.5px; font-family: 'DejaVu Sans'; text-anchor: middle; fill: #263238" x="15.178359" y="116.779523" transform="rotate(-90 15.178359 116.779523)">Share (%)</text>
    </g>
   </g>
   <g id="FillBetweenPolyCollection_1">
    <path d="M 82.286617 174.436731 
L 82.286617 222.370277 
L 160.844221 222.370277 
L 239.401824 222.370277 
L 317.959428 222.370277 
L 396.517032 222.370277 
L 475.074635 222.370277 
L 553.632239 222.370277 
L 553.632239 146.215609 
L 553.632239 146.215609 
L 475.074635 157.846793 
L 396.517032 167.075262 
L 317.959428 159.361049 
L 239.401824 164.470499 
L 160.844221 166.49491 
L 82.286617 174.436731 
z
" clip-path="url(#pcc22744776)" style="fill: #2a858a"/>
   </g>
   <g id="FillBetweenPolyCollection_2">
    <path d="M 82.286617 32.27953 
L 82.286617 174.436731 
L 160.844221 166.49491 
L 239.401824 164.470499 
L 317.959428 159.361049 
L 396.517032 167.075262 
L 475.074635 157.846793 
L 553.632239 146.215609 
L 553.632239 24.532737 
L 553.632239 24.532737 
L 475.074635 25.045824 
L 396.517032 25.905251 
L 317.959428 23.603142 
L 239.401824 24.271605 
L 160.844221 29.233153 
L 82.286617 32.27953 
z
" clip-path="url(#pcc22744776)" style="fill: #4c78a8"/>
   </g>
   <g id="FillBetweenPolyCollection_3">
    <path d="M 82.286617 22.418915 
L 82.286617 32.27953 
L 160.844221 29.233153 
L 239.401824 24.271605 
L 317.959428 23.603142 
L 396.517032 25.905251 
L 475.074635 25.045824 
L 553.632239 24.532737 
L 553.632239 14.627633 
L 553.632239 14.627633 
L 475.074635 17.210289 
L 396.517032 17.594767 
L 317.959428 16.447159 
L 239.401824 17.745156 
L 160.844221 22.305769 
L 82.286617 22.418915 
z
" clip-path="url(#pcc22744776)" style="fill: #b4bdc6"/>
   </g>
   <g id="FillBetweenPolyCollection_4">
    <path d="M 82.286617 11.18877 
L 82.286617 22.418915 
L 160.844221 22.305769 
L 239.401824 17.745156 
L 317.959428 16.447159 
L 396.517032 17.594767 
L 475.074635 17.210289 
L 553.632239 14.627633 
L 553.632239 11.18877 
L 553.632239 11.18877 
L 475.074635 11.18877 
L 396.517032 11.18877 
L 317.959428 11.18877 
L 239.401824 11.18877 
L 160.844221 11.18877 
L 82.286617 11.18877 
z
" clip-path="url(#pcc22744776)" style="fill: #e4e7eb"/>
   </g>
   <g id="patch_3">
    <path d="M 58.719336 222.370277 
L 58.719336 11.18877 
" style="fill: none; stroke: #aab3bc; stroke-width: 0.8; stroke-linejoin: miter; stroke-linecap: square"/>
   </g>
   <g id="patch_4">
    <path d="M 58.719336 222.370277 
L 577.19952 222.370277 
" style="fill: none; stroke: #aab3bc; stroke-width: 0.8; stroke-linejoin: miter; stroke-linecap: square"/>
   </g>
   <g id="legend_1">
    <g id="patch_5">
     <path d="M 343.766239 198.607464 
L 361.766239 198.607464 
L 361.766239 192.307464 
L 343.766239 192.307464 
z
" style="fill: #2a858a"/>
    </g>
    <g id="text_15">
     <text style="font-size: 9px; font-family: 'DejaVu Sans'; text-anchor: start; fill: #263238" x="368.966239" y="198.607464" transform="rotate(-0 368.966239 198.607464)">Feminine</text>
    </g>
    <g id="patch_6">
     <path d="M 343.766239 212.108167 
L 361.766239 212.108167 
L 361.766239 205.808167 
L 343.766239 205.808167 
z
" style="fill: #4c78a8"/>
    </g>
    <g id="text_16">
     <text style="font-size: 9px; font-family: 'DejaVu Sans'; text-anchor: start; fill: #263238" x="368.966239" y="212.108167" transform="rotate(-0 368.966239 212.108167)">Masculine</text>
    </g>
    <g id="patch_7">
     <path d="M 431.829833 198.607464 
L 449.829833 198.607464 
L 449.829833 192.307464 
L 431.829833 192.307464 
z
" style="fill: #b4bdc6"/>
    </g>
    <g id="text_17">
     <text style="font-size: 9px; font-family: 'DejaVu Sans'; text-anchor: start; fill: #263238" x="457.029833" y="198.607464" transform="rotate(-0 457.029833 198.607464)">Ambiguous/androgynous</text>
    </g>
    <g id="patch_8">
     <path d="M 431.829833 212.108167 
L 449.829833 212.108167 
L 449.829833 205.808167 
L 431.829833 205.808167 
z
" style="fill: #e4e7eb"/>
    </g>
    <g id="text_18">
     <text style="font-size: 9px; font-family: 'DejaVu Sans'; text-anchor: start; fill: #263238" x="457.029833" y="212.108167" transform="rotate(-0 457.029833 212.108167)">Not assessable</text>
    </g>
   </g>
  </g>
 </g>
 <defs>
  <clipPath id="pcc22744776">
   <rect x="58.719336" y="11.18877" width="518.480184" height="211.181507"/>
  </clipPath>
 </defs>
</svg>
